Coordinates
version=1
nRows=11
nColumns=40
inDegrees=yes

Units are S.I. units (second, meters, Newtons, ...)
Angles are in degrees.

endheader
time	pelvis_tilt	pelvis_list	pelvis_rotation	pelvis_tx	pelvis_ty	pelvis_tz	hip_flexion_r	hip_adduction_r	hip_rotation_r	knee_angle_r	knee_angle_r_beta	ankle_angle_r	subtalar_angle_r	mtp_angle_r	hip_flexion_l	hip_adduction_l	hip_rotation_l	knee_angle_l	knee_angle_l_beta	ankle_angle_l	subtalar_angle_l	mtp_angle_l	lumbar_extension	lumbar_bending	lumbar_rotation	arm_flex_r	arm_add_r	arm_rot_r	elbow_flex_r	pro_sup_r	wrist_flex_r	wrist_dev_r	arm_flex_l	arm_add_l	arm_rot_l	elbow_flex_l	pro_sup_l	wrist_flex_l	wrist_dev_l
      0.66000000	     -3.07802123	     -0.48594704	     -6.13639109	      0.20370916	      0.86892197	      1.13764276	     -2.82986744	     -5.97299223	     -4.25363920	    -46.94673444	     -0.81937509	    -19.56226623	     -1.92262661	      1.76504200	     32.93868475	      1.38377609	     12.10486762	    -37.66658379	     -0.65740591	      6.33427612	     17.65366016	     16.53776803	     -2.16782893	     -3.13536893	      4.48983226	     -3.65239782	    -13.16432278	     -8.05219733	     66.01364653	     89.95437384	      0.00000000	      0.00000000	    -15.61739767	      7.86225204	     21.86931597	     18.90104890	     89.95437384	      0.00000000	      0.00000000
      0.67000000	     -2.99174316	      0.01051357	     -5.72519185	      0.21781804	      0.86928124	      1.13553266	     -1.06636317	     -6.52059131	     -3.79458241	    -50.37102102	     -0.87914016	    -20.80688737	     -4.62110521	      2.19958883	     32.06003829	      0.38243054	     11.92012153	    -37.92445408	     -0.66190659	      7.27496689	     17.72053561	     16.10576947	     -2.14810879	     -3.80445323	      4.08205420	     -4.03663955	    -12.80135573	     -8.19899355	     64.61730111	     89.95437384	      0.00000000	      0.00000000	    -14.83858248	      8.04435702	     21.34277922	     19.23747727	     89.95437384	      0.00000000	      0.00000000
      0.68000000	     -2.88874346	      0.22073334	     -5.12569576	      0.23162583	      0.86993121	      1.13343460	      0.64006558	     -6.70259284	     -3.81675473	    -53.50724566	     -0.93387761	    -21.80896496	     -8.82795146	      3.22103490	     31.10515781	     -0.29428504	     11.75454138	    -38.11403605	     -0.66521542	      7.93103499	     17.64225299	     15.84711055	     -2.22619583	     -4.15998993	      3.50022511	     -4.30591681	    -12.42230177	     -8.32582689	     62.94927612	     89.95437384	      0.00000000	      0.00000000	    -14.02215990	      8.24347844	     20.69493449	     19.70661693	     89.95437384	      0.00000000	      0.00000000
      0.69000000	     -2.60373614	      0.52753418	     -4.48775846	      0.24537028	      0.87104922	      1.13102212	      2.10611947	     -7.11973037	     -4.07432474	    -56.41070531	     -0.98455254	    -21.21717080	    -11.42559521	      3.66130456	     29.78907695	     -1.09048653	     11.71116856	    -38.06068044	     -0.66428419	      9.02654150	     17.27224190	     15.39948452	     -2.52165431	     -4.60421333	      2.81251117	     -4.43411319	    -12.16906131	     -8.17494583	     61.06130230	     89.95437384	      0.00000000	      0.00000000	    -12.98552866	      8.38047717	     20.40888902	     19.89436306	     89.95437384	      0.00000000	      0.00000000
      0.70000000	     -2.44245349	      0.73404340	     -3.82230049	      0.25867582	      0.87227518	      1.12886783	      3.78640909	     -7.34803556	     -4.34629042	    -59.01346444	     -1.02997926	    -20.77991162	    -13.99448183	      4.35762658	     28.58934604	     -1.73169007	     11.60132631	    -37.90380720	     -0.66154623	      9.68648222	     16.97817584	     15.01884719	     -2.72904893	     -4.93808906	      2.16157867	     -4.52495499	    -11.83875021	     -8.12226573	     59.00678933	     89.95437384	      0.00000000	      0.00000000	    -12.07288352	      8.53935424	     20.17429856	     20.63443859	     89.95437384	      0.00000000	      0.00000000
      0.71000000	     -2.27956558	      0.76482519	     -3.16975252	      0.27194576	      0.87363409	      1.12673925	      5.44098492	     -7.36334431	     -4.58683487	    -61.25087951	     -1.06902952	    -20.27186295	    -15.85252241	      5.16896317	     27.38458583	     -2.16801936	     11.37011496	    -37.76444117	     -0.65911384	     10.28235357	     16.65683589	     14.60136119	     -2.94651312	     -5.05147736	      1.53705541	     -4.62794538	    -11.63379480	     -7.92582815	     56.91453335	     89.95437384	      0.00000000	      0.00000000	    -11.09451734	      8.61336922	     19.99681068	     21.32063545	     89.95437384	      0.00000000	      0.00000000
      0.72000000	     -2.06437240	      0.65035297	     -2.54981811	      0.28509711	      0.87519301	      1.12482143	      6.98966960	     -7.15517280	     -4.72214351	    -63.11414099	     -1.10154956	    -19.14207565	    -16.65336997	      5.66687050	     26.11000642	     -2.40923826	     11.00559575	    -37.65024733	     -0.65712078	     10.82775410	     16.27758514	     14.16912541	     -3.21940622	     -4.98040139	      0.99684771	     -4.68215099	    -11.37853798	     -7.84075929	     54.67479315	     89.95437384	      0.00000000	      0.00000000	    -10.03480027	      8.68936344	     19.84783398	     21.96744067	     89.95437384	      0.00000000	      0.00000000
      0.73000000	     -2.04982692	      0.44279274	     -1.94129367	      0.29791831	      0.87646793	      1.12314621	      8.89758574	     -6.75416721	     -4.93451678	    -64.97070164	     -1.13395266	    -16.05772905	    -16.38764363	     19.56639713	     25.08919464	     -2.49262420	     10.62390784	    -37.50990719	     -0.65467138	     10.87888577	     16.26936962	     10.70421223	     -3.28711381	     -4.82244285	      0.47522040	     -4.75231483	    -11.19857211	     -7.57595855	     52.41887556	     89.95437384	      0.00000000	      0.00000000	     -9.20408628	      8.69369273	     20.06265046	     23.22325435	     89.95437384	      0.00000000	      0.00000000
      0.74000000	     -1.89638463	      0.27812110	     -1.31479445	      0.31104550	      0.87802508	      1.12138667	     10.40196157	     -6.46352373	     -5.16347419	    -66.07902561	     -1.15329656	    -14.63774174	    -16.56775524	     19.03802747	     23.81744143	     -2.62714070	     10.23250437	    -37.28363369	     -0.65072216	     11.62491854	     15.83092807	     10.26235075	     -3.46227764	     -4.68756031	     -0.00045078	     -4.88822803	    -11.01831830	     -7.33707764	     50.13696781	     89.95437384	      0.00000000	      0.00000000	     -8.39729986	      8.74637984	     20.02665559	     24.54357524	     89.95437384	      0.00000000	      0.00000000
      0.75000000	     -1.77677438	      0.07109705	     -0.71553418	      0.32399427	      0.87965014	      1.11957570	     11.91958090	     -6.09108015	     -5.32368086	    -66.84814291	     -1.16672019	    -13.23944576	    -16.59568851	     18.51104113	     22.54290680	     -2.68294762	      9.86227508	    -36.95923895	     -0.64506041	     12.15576503	     15.40847526	      9.88837553	     -3.59776936	     -4.46738154	     -0.36843092	     -4.99006712	    -10.78509501	     -7.35318031	     47.72910452	     89.95437384	      0.00000000	      0.00000000	     -7.45331615	      8.72722714	     20.05587731	     25.71826667	     89.95437384	      0.00000000	      0.00000000
      0.76000000	     -1.66129086	      0.03431717	      0.07058984	      0.33685349	      0.88117676	      1.11736898	     13.36797075	     -6.06668142	     -5.81156273	    -67.35559678	     -1.17557693	    -11.28914584	    -16.28235300	     18.21049019	     21.22397131	     -3.01610358	      9.29591130	    -36.48952982	     -0.63686244	     12.55440817	     15.19604101	      9.24324130	     -3.75641821	     -4.44324246	     -1.06802765	     -5.04516919	    -10.66098907	     -6.90886413	     45.36105756	     89.95437384	      0.00000000	      0.00000000	     -6.62743230	      8.58845009	     20.77710781	     27.15987448	     89.95437384	      0.00000000	      0.00000000
